<mxfile host="app.diagrams.net" agent="Mozilla/5.0 (Windows NT 10.0; Win64; x64; rv:131.0) Gecko/20100101 Firefox/131.0" version="24.7.17">
  <diagram name="Page-1" id="dUR83w1nH0nvdrbsTWG1">
    <mxGraphModel dx="1748" dy="2434" grid="1" gridSize="10" guides="1" tooltips="1" connect="1" arrows="1" fold="1" page="1" pageScale="1" pageWidth="827" pageHeight="1169" math="0" shadow="0">
      <root>
        <mxCell id="0" />
        <mxCell id="1" parent="0" />
        <mxCell id="bGkYVAov0_zAZHjfnMUJ-30" style="edgeStyle=orthogonalEdgeStyle;rounded=0;orthogonalLoop=1;jettySize=auto;html=1;exitX=0.5;exitY=1;exitDx=0;exitDy=0;entryX=0.5;entryY=0;entryDx=0;entryDy=0;" parent="1" source="XjFPQFX2TH-XBSzo8ViS-1" target="XjFPQFX2TH-XBSzo8ViS-6" edge="1">
          <mxGeometry relative="1" as="geometry" />
        </mxCell>
        <mxCell id="XjFPQFX2TH-XBSzo8ViS-1" value="&lt;font style=&quot;font-size: 14px;&quot; face=&quot;Courier New&quot;&gt;create_glacial_start_locations&lt;/font&gt;" style="rounded=1;whiteSpace=wrap;html=1;fillColor=#f5f5f5;strokeColor=#666666;fontColor=#333333;" parent="1" vertex="1">
          <mxGeometry x="268" y="8" width="289" height="60" as="geometry" />
        </mxCell>
        <mxCell id="XjFPQFX2TH-XBSzo8ViS-2" value="" style="shape=flexArrow;endArrow=classic;html=1;rounded=0;fontSize=11;width=10;" parent="1" edge="1">
          <mxGeometry width="50" height="50" relative="1" as="geometry">
            <mxPoint x="182" y="37.5" as="sourcePoint" />
            <mxPoint x="267" y="37.5" as="targetPoint" />
          </mxGeometry>
        </mxCell>
        <mxCell id="XjFPQFX2TH-XBSzo8ViS-3" value="" style="shape=flexArrow;endArrow=classic;html=1;rounded=0;" parent="1" edge="1">
          <mxGeometry width="50" height="50" relative="1" as="geometry">
            <mxPoint x="558" y="37.5" as="sourcePoint" />
            <mxPoint x="644" y="37.5" as="targetPoint" />
          </mxGeometry>
        </mxCell>
        <mxCell id="XjFPQFX2TH-XBSzo8ViS-4" value="&lt;div style=&quot;font-size: 14px;&quot; align=&quot;right&quot;&gt;&lt;font style=&quot;font-size: 14px;&quot; face=&quot;Courier New&quot;&gt;climate data&lt;/font&gt;&lt;/div&gt;&lt;div style=&quot;font-size: 14px;&quot; align=&quot;right&quot;&gt;&lt;font face=&quot;Courier New&quot; style=&quot;font-size: 14px;&quot;&gt;&lt;font style=&quot;font-size: 14px;&quot;&gt;waterbody size&lt;/font&gt;&lt;/font&gt;&lt;font face=&quot;_drYcPB9CQm6GCsXSCS_&quot; style=&quot;font-size: 14px;&quot;&gt;&lt;br&gt;&lt;/font&gt;&lt;/div&gt;" style="text;html=1;align=right;verticalAlign=middle;whiteSpace=wrap;rounded=0;" parent="1" vertex="1">
          <mxGeometry x="54" y="-2" width="120" height="80" as="geometry" />
        </mxCell>
        <mxCell id="XjFPQFX2TH-XBSzo8ViS-5" value="&lt;div&gt;&lt;font style=&quot;font-size: 14px;&quot; face=&quot;Courier New&quot;&gt;glacial seeds&lt;/font&gt;&lt;/div&gt;&lt;div&gt;&lt;div align=&quot;left&quot;&gt;&lt;font style=&quot;font-size: 14px;&quot; face=&quot;Courier New&quot;&gt;ice flow&lt;/font&gt;&lt;/div&gt;&lt;/div&gt;" style="text;html=1;align=left;verticalAlign=middle;whiteSpace=wrap;rounded=0;" parent="1" vertex="1">
          <mxGeometry x="647" y="23" width="130" height="30" as="geometry" />
        </mxCell>
        <mxCell id="bGkYVAov0_zAZHjfnMUJ-31" style="edgeStyle=orthogonalEdgeStyle;rounded=0;orthogonalLoop=1;jettySize=auto;html=1;exitX=0.5;exitY=1;exitDx=0;exitDy=0;entryX=0.5;entryY=0;entryDx=0;entryDy=0;" parent="1" source="XjFPQFX2TH-XBSzo8ViS-6" target="XjFPQFX2TH-XBSzo8ViS-12" edge="1">
          <mxGeometry relative="1" as="geometry" />
        </mxCell>
        <mxCell id="XjFPQFX2TH-XBSzo8ViS-6" value="&lt;font style=&quot;font-size: 14px;&quot; face=&quot;Courier New&quot;&gt;find_glacial_perimeter&lt;/font&gt;" style="rounded=1;whiteSpace=wrap;html=1;fillColor=#f5f5f5;strokeColor=#666666;fontColor=#333333;" parent="1" vertex="1">
          <mxGeometry x="268" y="99" width="289" height="60" as="geometry" />
        </mxCell>
        <mxCell id="XjFPQFX2TH-XBSzo8ViS-7" value="" style="shape=flexArrow;endArrow=classic;html=1;rounded=0;fontSize=11;width=10;" parent="1" edge="1">
          <mxGeometry width="50" height="50" relative="1" as="geometry">
            <mxPoint x="182" y="127.5" as="sourcePoint" />
            <mxPoint x="267" y="127.5" as="targetPoint" />
          </mxGeometry>
        </mxCell>
        <mxCell id="XjFPQFX2TH-XBSzo8ViS-8" value="" style="shape=flexArrow;endArrow=classic;html=1;rounded=0;" parent="1" edge="1">
          <mxGeometry width="50" height="50" relative="1" as="geometry">
            <mxPoint x="558" y="128.5" as="sourcePoint" />
            <mxPoint x="644" y="128.5" as="targetPoint" />
          </mxGeometry>
        </mxCell>
        <mxCell id="bGkYVAov0_zAZHjfnMUJ-42" style="edgeStyle=orthogonalEdgeStyle;rounded=0;orthogonalLoop=1;jettySize=auto;html=1;exitX=0.5;exitY=1;exitDx=0;exitDy=0;entryX=0.5;entryY=0;entryDx=0;entryDy=0;" parent="1" source="XjFPQFX2TH-XBSzo8ViS-9" target="bGkYVAov0_zAZHjfnMUJ-6" edge="1">
          <mxGeometry relative="1" as="geometry" />
        </mxCell>
        <mxCell id="XjFPQFX2TH-XBSzo8ViS-9" value="&lt;font style=&quot;font-size: 14px;&quot; face=&quot;Courier New&quot;&gt;construct_glacial_melt_provinces&lt;br&gt;and_disperse_silt&lt;/font&gt;" style="rounded=1;whiteSpace=wrap;html=1;fillColor=#f5f5f5;fontColor=#333333;strokeColor=#666666;" parent="1" vertex="1">
          <mxGeometry x="269" y="921" width="289" height="60" as="geometry" />
        </mxCell>
        <mxCell id="bGkYVAov0_zAZHjfnMUJ-33" style="edgeStyle=orthogonalEdgeStyle;rounded=0;orthogonalLoop=1;jettySize=auto;html=1;exitX=0.5;exitY=1;exitDx=0;exitDy=0;entryX=0.5;entryY=0;entryDx=0;entryDy=0;" parent="1" source="XjFPQFX2TH-XBSzo8ViS-12" target="XjFPQFX2TH-XBSzo8ViS-21" edge="1">
          <mxGeometry relative="1" as="geometry">
            <mxPoint x="420" y="271" as="targetPoint" />
          </mxGeometry>
        </mxCell>
        <mxCell id="XjFPQFX2TH-XBSzo8ViS-12" value="&lt;font style=&quot;font-size: 14px;&quot; face=&quot;Courier New&quot;&gt;find_distance&lt;br&gt;of_each_glacier_tile_from_edge&lt;/font&gt;" style="rounded=1;whiteSpace=wrap;html=1;fillColor=#f5f5f5;fontColor=#333333;strokeColor=#666666;" parent="1" vertex="1">
          <mxGeometry x="268" y="191" width="289" height="60" as="geometry" />
        </mxCell>
        <mxCell id="XjFPQFX2TH-XBSzo8ViS-13" value="" style="shape=flexArrow;endArrow=classic;html=1;rounded=0;fontSize=11;width=10;" parent="1" edge="1">
          <mxGeometry width="50" height="50" relative="1" as="geometry">
            <mxPoint x="182" y="220.5" as="sourcePoint" />
            <mxPoint x="267" y="220.5" as="targetPoint" />
          </mxGeometry>
        </mxCell>
        <mxCell id="XjFPQFX2TH-XBSzo8ViS-14" value="" style="shape=flexArrow;endArrow=classic;html=1;rounded=0;" parent="1" edge="1">
          <mxGeometry width="50" height="50" relative="1" as="geometry">
            <mxPoint x="558" y="220.5" as="sourcePoint" />
            <mxPoint x="644" y="220.5" as="targetPoint" />
          </mxGeometry>
        </mxCell>
        <mxCell id="XjFPQFX2TH-XBSzo8ViS-15" value="" style="shape=flexArrow;endArrow=classic;html=1;rounded=0;fontSize=11;" parent="1" edge="1">
          <mxGeometry width="50" height="50" relative="1" as="geometry">
            <mxPoint x="182" y="952" as="sourcePoint" />
            <mxPoint x="268" y="952" as="targetPoint" />
          </mxGeometry>
        </mxCell>
        <mxCell id="XjFPQFX2TH-XBSzo8ViS-16" value="" style="shape=flexArrow;endArrow=classic;html=1;rounded=0;" parent="1" edge="1">
          <mxGeometry width="50" height="50" relative="1" as="geometry">
            <mxPoint x="559" y="950.5" as="sourcePoint" />
            <mxPoint x="644" y="950.5" as="targetPoint" />
          </mxGeometry>
        </mxCell>
        <mxCell id="XjFPQFX2TH-XBSzo8ViS-18" value="&lt;div style=&quot;font-size: 14px;&quot;&gt;&lt;font style=&quot;font-size: 14px;&quot; face=&quot;Courier New&quot;&gt;old_layer&lt;/font&gt;&lt;/div&gt;&lt;div style=&quot;font-size: 14px;&quot;&gt;&lt;font face=&quot;Courier New&quot; style=&quot;font-size: 14px;&quot;&gt;&lt;font style=&quot;font-size: 14px;&quot;&gt;distance_from_edge&lt;/font&gt;&lt;/font&gt;&lt;font face=&quot;Vrnqp2ewCwo0ukPRFqaV&quot; style=&quot;font-size: 14px;&quot;&gt;&lt;br&gt;&lt;/font&gt;&lt;/div&gt;" style="text;html=1;align=left;verticalAlign=middle;whiteSpace=wrap;rounded=0;" parent="1" vertex="1">
          <mxGeometry x="647" y="113" width="60" height="30" as="geometry" />
        </mxCell>
        <mxCell id="XjFPQFX2TH-XBSzo8ViS-19" value="&lt;div align=&quot;right&quot;&gt;&lt;font style=&quot;font-size: 14px;&quot; face=&quot;Courier New&quot;&gt;glacial seeds&lt;/font&gt;&lt;/div&gt;" style="text;html=1;align=right;verticalAlign=middle;whiteSpace=wrap;rounded=0;" parent="1" vertex="1">
          <mxGeometry x="44" y="113" width="130" height="30" as="geometry" />
        </mxCell>
        <mxCell id="bGkYVAov0_zAZHjfnMUJ-34" style="edgeStyle=orthogonalEdgeStyle;rounded=0;orthogonalLoop=1;jettySize=auto;html=1;exitX=0.5;exitY=1;exitDx=0;exitDy=0;entryX=0.5;entryY=0;entryDx=0;entryDy=0;" parent="1" source="XjFPQFX2TH-XBSzo8ViS-21" target="XjFPQFX2TH-XBSzo8ViS-22" edge="1">
          <mxGeometry relative="1" as="geometry">
            <mxPoint x="412.2857142857142" y="371" as="targetPoint" />
          </mxGeometry>
        </mxCell>
        <mxCell id="XjFPQFX2TH-XBSzo8ViS-21" value="&lt;font style=&quot;font-size: 14px;&quot; face=&quot;Courier New&quot;&gt;calculate_initial_ice_depth&lt;/font&gt;" style="rounded=1;whiteSpace=wrap;html=1;fillColor=#f5f5f5;strokeColor=#666666;fontColor=#333333;" parent="1" vertex="1">
          <mxGeometry x="268" y="282" width="289" height="60" as="geometry" />
        </mxCell>
        <mxCell id="bGkYVAov0_zAZHjfnMUJ-35" style="edgeStyle=orthogonalEdgeStyle;rounded=0;orthogonalLoop=1;jettySize=auto;html=1;exitX=0.5;exitY=1;exitDx=0;exitDy=0;entryX=0.5;entryY=0;entryDx=0;entryDy=0;" parent="1" source="XjFPQFX2TH-XBSzo8ViS-22" target="XjFPQFX2TH-XBSzo8ViS-23" edge="1">
          <mxGeometry relative="1" as="geometry">
            <mxPoint x="413.42857142857133" y="461" as="targetPoint" />
          </mxGeometry>
        </mxCell>
        <mxCell id="XjFPQFX2TH-XBSzo8ViS-22" value="&lt;font style=&quot;font-size: 14px;&quot; face=&quot;Courier New&quot;&gt;sort_glacial_seeds&lt;/font&gt;" style="rounded=1;whiteSpace=wrap;html=1;fillColor=#f5f5f5;fontColor=#333333;strokeColor=#666666;" parent="1" vertex="1">
          <mxGeometry x="269" y="373" width="289" height="60" as="geometry" />
        </mxCell>
        <mxCell id="bGkYVAov0_zAZHjfnMUJ-36" style="edgeStyle=orthogonalEdgeStyle;rounded=0;orthogonalLoop=1;jettySize=auto;html=1;exitX=0.5;exitY=1;exitDx=0;exitDy=0;entryX=0.5;entryY=0;entryDx=0;entryDy=0;" parent="1" source="XjFPQFX2TH-XBSzo8ViS-23" target="XjFPQFX2TH-XBSzo8ViS-24" edge="1">
          <mxGeometry relative="1" as="geometry" />
        </mxCell>
        <mxCell id="XjFPQFX2TH-XBSzo8ViS-23" value="&lt;font style=&quot;font-size: 14px;&quot; face=&quot;Courier New&quot;&gt;ice_expansion_loops&lt;/font&gt;" style="rounded=1;whiteSpace=wrap;html=1;fillColor=#f5f5f5;strokeColor=#666666;fontColor=#333333;" parent="1" vertex="1">
          <mxGeometry x="269" y="464" width="289" height="60" as="geometry" />
        </mxCell>
        <mxCell id="bGkYVAov0_zAZHjfnMUJ-38" style="edgeStyle=orthogonalEdgeStyle;rounded=0;orthogonalLoop=1;jettySize=auto;html=1;exitX=0.5;exitY=1;exitDx=0;exitDy=0;entryX=0.5;entryY=0;entryDx=0;entryDy=0;" parent="1" source="XjFPQFX2TH-XBSzo8ViS-24" target="VD79BcTOfvLgxZZ05Eph-14" edge="1">
          <mxGeometry relative="1" as="geometry" />
        </mxCell>
        <mxCell id="XjFPQFX2TH-XBSzo8ViS-24" value="&lt;font style=&quot;font-size: 14px;&quot; face=&quot;Courier New&quot;&gt;set_permanent_ice_variables&lt;/font&gt;" style="rounded=1;whiteSpace=wrap;html=1;fillColor=#f5f5f5;fontColor=#333333;strokeColor=#666666;" parent="1" vertex="1">
          <mxGeometry x="269" y="556" width="289" height="60" as="geometry" />
        </mxCell>
        <mxCell id="XjFPQFX2TH-XBSzo8ViS-25" value="&lt;div align=&quot;right&quot;&gt;&lt;font style=&quot;font-size: 14px;&quot; face=&quot;Courier New&quot;&gt;old_layer&lt;/font&gt;&lt;/div&gt;&lt;div align=&quot;right&quot;&gt;&lt;font style=&quot;font-size: 14px;&quot; face=&quot;Courier New&quot;&gt;glacial seeds&lt;/font&gt;&lt;/div&gt;&lt;div align=&quot;right&quot;&gt;&lt;div style=&quot;font-size: 14px;&quot;&gt;&lt;font face=&quot;Courier New&quot; style=&quot;font-size: 14px;&quot;&gt;&lt;font style=&quot;font-size: 14px;&quot;&gt;distance_from_edge&lt;/font&gt;&lt;/font&gt;&lt;font face=&quot;Vrnqp2ewCwo0ukPRFqaV&quot; style=&quot;font-size: 14px;&quot;&gt;&lt;br&gt;&lt;/font&gt;&lt;/div&gt;&lt;/div&gt;" style="text;html=1;align=center;verticalAlign=middle;whiteSpace=wrap;rounded=0;" parent="1" vertex="1">
          <mxGeometry x="35" y="203" width="130" height="30" as="geometry" />
        </mxCell>
        <mxCell id="XjFPQFX2TH-XBSzo8ViS-26" value="&lt;div style=&quot;font-size: 14px;&quot;&gt;&lt;font face=&quot;Courier New&quot; style=&quot;font-size: 14px;&quot;&gt;&lt;font style=&quot;font-size: 14px;&quot;&gt;distance_from_edge&lt;/font&gt;&lt;/font&gt;&lt;font face=&quot;Vrnqp2ewCwo0ukPRFqaV&quot; style=&quot;font-size: 14px;&quot;&gt;&lt;br&gt;&lt;/font&gt;&lt;/div&gt;" style="text;html=1;align=left;verticalAlign=middle;whiteSpace=wrap;rounded=0;" parent="1" vertex="1">
          <mxGeometry x="647" y="203" width="158" height="30" as="geometry" />
        </mxCell>
        <mxCell id="XjFPQFX2TH-XBSzo8ViS-27" value="&lt;div align=&quot;right&quot;&gt;&lt;font style=&quot;font-size: 14px;&quot; face=&quot;Courier New&quot;&gt;glacial seeds&lt;/font&gt;&lt;/div&gt;&lt;div align=&quot;right&quot;&gt;&lt;div&gt;&lt;font style=&quot;font-size: 14px;&quot; face=&quot;Courier New&quot;&gt;ice flow&lt;/font&gt;&lt;/div&gt;&lt;/div&gt;&lt;div align=&quot;right&quot;&gt;&lt;div style=&quot;font-size: 14px;&quot;&gt;&lt;font face=&quot;Courier New&quot; style=&quot;font-size: 14px;&quot;&gt;&lt;font style=&quot;font-size: 14px;&quot;&gt;distance_from_edge&lt;/font&gt;&lt;/font&gt;&lt;font face=&quot;Vrnqp2ewCwo0ukPRFqaV&quot; style=&quot;font-size: 14px;&quot;&gt;&lt;br&gt;&lt;/font&gt;&lt;/div&gt;&lt;/div&gt;" style="text;html=1;align=right;verticalAlign=middle;whiteSpace=wrap;rounded=0;" parent="1" vertex="1">
          <mxGeometry x="44" y="297" width="130" height="30" as="geometry" />
        </mxCell>
        <mxCell id="XjFPQFX2TH-XBSzo8ViS-28" value="" style="shape=flexArrow;endArrow=classic;html=1;rounded=0;fontSize=11;width=10;" parent="1" edge="1">
          <mxGeometry width="50" height="50" relative="1" as="geometry">
            <mxPoint x="182" y="311.5" as="sourcePoint" />
            <mxPoint x="267" y="311.5" as="targetPoint" />
          </mxGeometry>
        </mxCell>
        <mxCell id="XjFPQFX2TH-XBSzo8ViS-29" value="" style="shape=flexArrow;endArrow=classic;html=1;rounded=0;" parent="1" edge="1">
          <mxGeometry width="50" height="50" relative="1" as="geometry">
            <mxPoint x="558" y="311.5" as="sourcePoint" />
            <mxPoint x="644" y="311.5" as="targetPoint" />
          </mxGeometry>
        </mxCell>
        <mxCell id="XjFPQFX2TH-XBSzo8ViS-30" value="" style="shape=flexArrow;endArrow=classic;html=1;rounded=0;fontSize=11;width=10;" parent="1" edge="1">
          <mxGeometry width="50" height="50" relative="1" as="geometry">
            <mxPoint x="182" y="402.5" as="sourcePoint" />
            <mxPoint x="268" y="402.5" as="targetPoint" />
          </mxGeometry>
        </mxCell>
        <mxCell id="XjFPQFX2TH-XBSzo8ViS-31" value="" style="shape=flexArrow;endArrow=classic;html=1;rounded=0;" parent="1" edge="1">
          <mxGeometry width="50" height="50" relative="1" as="geometry">
            <mxPoint x="559" y="402.5" as="sourcePoint" />
            <mxPoint x="644" y="402.5" as="targetPoint" />
          </mxGeometry>
        </mxCell>
        <mxCell id="XjFPQFX2TH-XBSzo8ViS-32" value="" style="shape=flexArrow;endArrow=classic;html=1;rounded=0;fontSize=11;width=10;" parent="1" edge="1">
          <mxGeometry width="50" height="50" relative="1" as="geometry">
            <mxPoint x="183" y="493.5" as="sourcePoint" />
            <mxPoint x="268" y="493.5" as="targetPoint" />
          </mxGeometry>
        </mxCell>
        <mxCell id="XjFPQFX2TH-XBSzo8ViS-33" value="" style="shape=flexArrow;endArrow=classic;html=1;rounded=0;" parent="1" edge="1">
          <mxGeometry width="50" height="50" relative="1" as="geometry">
            <mxPoint x="559" y="493.5" as="sourcePoint" />
            <mxPoint x="644" y="493.5" as="targetPoint" />
          </mxGeometry>
        </mxCell>
        <mxCell id="XjFPQFX2TH-XBSzo8ViS-34" value="" style="shape=flexArrow;endArrow=classic;html=1;rounded=0;fontSize=11;width=10;" parent="1" edge="1">
          <mxGeometry width="50" height="50" relative="1" as="geometry">
            <mxPoint x="182" y="585.5" as="sourcePoint" />
            <mxPoint x="268" y="585.5" as="targetPoint" />
          </mxGeometry>
        </mxCell>
        <mxCell id="XjFPQFX2TH-XBSzo8ViS-35" value="" style="shape=flexArrow;endArrow=classic;html=1;rounded=0;" parent="1" edge="1">
          <mxGeometry width="50" height="50" relative="1" as="geometry">
            <mxPoint x="559" y="585.5" as="sourcePoint" />
            <mxPoint x="644" y="585.5" as="targetPoint" />
          </mxGeometry>
        </mxCell>
        <mxCell id="XjFPQFX2TH-XBSzo8ViS-36" value="&lt;div align=&quot;left&quot;&gt;&lt;font style=&quot;font-size: 14px;&quot; face=&quot;Courier New&quot;&gt;ice flow&lt;/font&gt;&lt;/div&gt;" style="text;html=1;align=left;verticalAlign=middle;whiteSpace=wrap;rounded=0;" parent="1" vertex="1">
          <mxGeometry x="647" y="297" width="70" height="30" as="geometry" />
        </mxCell>
        <mxCell id="XjFPQFX2TH-XBSzo8ViS-37" value="&lt;div align=&quot;right&quot;&gt;&lt;font style=&quot;font-size: 14px;&quot; face=&quot;Courier New&quot;&gt;glacial seeds&lt;/font&gt;&lt;/div&gt;" style="text;html=1;align=right;verticalAlign=middle;whiteSpace=wrap;rounded=0;" parent="1" vertex="1">
          <mxGeometry x="55" y="388" width="119" height="30" as="geometry" />
        </mxCell>
        <mxCell id="XjFPQFX2TH-XBSzo8ViS-39" value="&lt;div align=&quot;left&quot;&gt;&lt;font style=&quot;font-size: 14px;&quot; face=&quot;Courier New&quot;&gt;sorted glacial seeds&lt;/font&gt;&lt;/div&gt;" style="text;html=1;align=left;verticalAlign=middle;whiteSpace=wrap;rounded=0;" parent="1" vertex="1">
          <mxGeometry x="647" y="388" width="178" height="30" as="geometry" />
        </mxCell>
        <mxCell id="XjFPQFX2TH-XBSzo8ViS-40" value="&lt;div align=&quot;right&quot;&gt;&lt;font style=&quot;font-size: 14px;&quot; face=&quot;Courier New&quot;&gt;sorted glacial seeds&lt;/font&gt;&lt;/div&gt;&lt;div align=&quot;right&quot;&gt;&lt;font style=&quot;font-size: 14px;&quot; face=&quot;Courier New&quot;&gt;ice flow&lt;br&gt;&lt;/font&gt;&lt;/div&gt;" style="text;html=1;align=right;verticalAlign=middle;whiteSpace=wrap;rounded=0;" parent="1" vertex="1">
          <mxGeometry x="-5" y="479" width="179" height="30" as="geometry" />
        </mxCell>
        <mxCell id="VD79BcTOfvLgxZZ05Eph-11" value="&lt;div align=&quot;left&quot; style=&quot;font-size: 14px;&quot;&gt;&lt;font style=&quot;font-size: 14px;&quot; face=&quot;Courier New&quot;&gt;ice flow&lt;/font&gt;&lt;/div&gt;&lt;div align=&quot;left&quot; style=&quot;font-size: 14px;&quot;&gt;&lt;font style=&quot;font-size: 14px;&quot; face=&quot;Courier New&quot;&gt;ice moved&lt;br&gt;&lt;/font&gt;&lt;/div&gt;&lt;div align=&quot;left&quot; style=&quot;font-size: 14px;&quot;&gt;&lt;font style=&quot;font-size: 14px;&quot; face=&quot;Courier New&quot;&gt;glacial seeds+&lt;br&gt;&lt;/font&gt;&lt;/div&gt;" style="text;html=1;align=left;verticalAlign=middle;whiteSpace=wrap;rounded=0;" parent="1" vertex="1">
          <mxGeometry x="647" y="479" width="158" height="30" as="geometry" />
        </mxCell>
        <mxCell id="VD79BcTOfvLgxZZ05Eph-12" value="&lt;div align=&quot;right&quot;&gt;&lt;font style=&quot;font-size: 14px;&quot; face=&quot;Courier New&quot;&gt;glacial seeds&lt;/font&gt;&lt;/div&gt;&lt;div align=&quot;right&quot;&gt;&lt;font style=&quot;font-size: 14px;&quot; face=&quot;Courier New&quot;&gt;ice flow&lt;/font&gt;&lt;/div&gt;" style="text;html=1;align=right;verticalAlign=middle;whiteSpace=wrap;rounded=0;" parent="1" vertex="1">
          <mxGeometry x="55" y="571" width="119" height="30" as="geometry" />
        </mxCell>
        <mxCell id="VD79BcTOfvLgxZZ05Eph-13" value="&lt;div align=&quot;left&quot;&gt;&lt;font style=&quot;font-size: 14px;&quot; face=&quot;Courier New&quot;&gt;w ice&lt;/font&gt;&lt;/div&gt;&lt;div align=&quot;left&quot;&gt;&lt;font style=&quot;font-size: 14px;&quot; face=&quot;Courier New&quot;&gt;w ice age ice&lt;/font&gt;&lt;/div&gt;&lt;div align=&quot;left&quot;&gt;&lt;font style=&quot;font-size: 14px;&quot; face=&quot;Courier New&quot;&gt;w mineral richness&lt;/font&gt;&lt;/div&gt;" style="text;html=1;align=left;verticalAlign=middle;whiteSpace=wrap;rounded=0;" parent="1" vertex="1">
          <mxGeometry x="647" y="571" width="208" height="30" as="geometry" />
        </mxCell>
        <mxCell id="bGkYVAov0_zAZHjfnMUJ-39" style="edgeStyle=orthogonalEdgeStyle;rounded=0;orthogonalLoop=1;jettySize=auto;html=1;exitX=0.5;exitY=1;exitDx=0;exitDy=0;entryX=0.5;entryY=0;entryDx=0;entryDy=0;" parent="1" source="VD79BcTOfvLgxZZ05Eph-14" target="VD79BcTOfvLgxZZ05Eph-15" edge="1">
          <mxGeometry relative="1" as="geometry" />
        </mxCell>
        <mxCell id="VD79BcTOfvLgxZZ05Eph-14" value="&lt;div&gt;&lt;font style=&quot;font-size: 14px;&quot; face=&quot;Courier New&quot;&gt;creating_material&lt;/font&gt;&lt;/div&gt;&lt;div&gt;&lt;font style=&quot;font-size: 14px;&quot; face=&quot;Courier New&quot;&gt;from_glacial_action&lt;/font&gt;&lt;/div&gt;" style="rounded=1;whiteSpace=wrap;html=1;fillColor=#f5f5f5;fontColor=#333333;strokeColor=#666666;" parent="1" vertex="1">
          <mxGeometry x="269" y="647" width="289" height="60" as="geometry" />
        </mxCell>
        <mxCell id="bGkYVAov0_zAZHjfnMUJ-40" style="edgeStyle=orthogonalEdgeStyle;rounded=0;orthogonalLoop=1;jettySize=auto;html=1;exitX=0.5;exitY=1;exitDx=0;exitDy=0;entryX=0.5;entryY=0;entryDx=0;entryDy=0;" parent="1" source="VD79BcTOfvLgxZZ05Eph-15" target="VD79BcTOfvLgxZZ05Eph-16" edge="1">
          <mxGeometry relative="1" as="geometry" />
        </mxCell>
        <mxCell id="VD79BcTOfvLgxZZ05Eph-15" value="&lt;font style=&quot;font-size: 14px;&quot; face=&quot;Courier New&quot;&gt;push_material_to_the_melt_zones&lt;/font&gt;" style="rounded=1;whiteSpace=wrap;html=1;fillColor=#f5f5f5;fontColor=#333333;strokeColor=#666666;" parent="1" vertex="1">
          <mxGeometry x="269" y="738" width="289" height="60" as="geometry" />
        </mxCell>
        <mxCell id="VD79BcTOfvLgxZZ05Eph-16" value="&lt;font style=&quot;font-size: 14px;&quot; face=&quot;Courier New&quot;&gt;remove_ineligible_ocean_ice_tiles&lt;/font&gt;" style="rounded=1;whiteSpace=wrap;html=1;fillColor=#f5f5f5;fontColor=#333333;strokeColor=#666666;" parent="1" vertex="1">
          <mxGeometry x="269" y="829" width="289" height="60" as="geometry" />
        </mxCell>
        <mxCell id="VD79BcTOfvLgxZZ05Eph-17" value="" style="shape=flexArrow;endArrow=classic;html=1;rounded=0;fontSize=11;" parent="1" edge="1">
          <mxGeometry width="50" height="50" relative="1" as="geometry">
            <mxPoint x="182" y="858.5" as="sourcePoint" />
            <mxPoint x="268" y="858.5" as="targetPoint" />
          </mxGeometry>
        </mxCell>
        <mxCell id="VD79BcTOfvLgxZZ05Eph-18" value="" style="shape=flexArrow;endArrow=classic;html=1;rounded=0;" parent="1" edge="1">
          <mxGeometry width="50" height="50" relative="1" as="geometry">
            <mxPoint x="559" y="858.5" as="sourcePoint" />
            <mxPoint x="644" y="858.5" as="targetPoint" />
          </mxGeometry>
        </mxCell>
        <mxCell id="VD79BcTOfvLgxZZ05Eph-19" value="" style="shape=flexArrow;endArrow=classic;html=1;rounded=0;fontSize=11;" parent="1" edge="1">
          <mxGeometry width="50" height="50" relative="1" as="geometry">
            <mxPoint x="182" y="767.5" as="sourcePoint" />
            <mxPoint x="268" y="767.5" as="targetPoint" />
          </mxGeometry>
        </mxCell>
        <mxCell id="VD79BcTOfvLgxZZ05Eph-20" value="" style="shape=flexArrow;endArrow=classic;html=1;rounded=0;" parent="1" edge="1">
          <mxGeometry width="50" height="50" relative="1" as="geometry">
            <mxPoint x="559" y="767.5" as="sourcePoint" />
            <mxPoint x="644" y="767.5" as="targetPoint" />
          </mxGeometry>
        </mxCell>
        <mxCell id="VD79BcTOfvLgxZZ05Eph-22" value="" style="shape=flexArrow;endArrow=classic;html=1;rounded=0;fontSize=11;" parent="1" edge="1">
          <mxGeometry width="50" height="50" relative="1" as="geometry">
            <mxPoint x="182" y="676.5" as="sourcePoint" />
            <mxPoint x="268" y="676.5" as="targetPoint" />
          </mxGeometry>
        </mxCell>
        <mxCell id="VD79BcTOfvLgxZZ05Eph-23" value="" style="shape=flexArrow;endArrow=classic;html=1;rounded=0;" parent="1" edge="1">
          <mxGeometry width="50" height="50" relative="1" as="geometry">
            <mxPoint x="559" y="676.5" as="sourcePoint" />
            <mxPoint x="644" y="676.5" as="targetPoint" />
          </mxGeometry>
        </mxCell>
        <mxCell id="VD79BcTOfvLgxZZ05Eph-28" value="&lt;div align=&quot;right&quot;&gt;&lt;font style=&quot;font-size: 14px;&quot; face=&quot;Courier New&quot;&gt;glacial seeds&lt;/font&gt;&lt;/div&gt;" style="text;html=1;align=right;verticalAlign=middle;whiteSpace=wrap;rounded=0;" parent="1" vertex="1">
          <mxGeometry x="55" y="662" width="119" height="30" as="geometry" />
        </mxCell>
        <mxCell id="VD79BcTOfvLgxZZ05Eph-30" value="&lt;div align=&quot;left&quot;&gt;&lt;font style=&quot;font-size: 14px;&quot; face=&quot;Courier New&quot;&gt;texture material&lt;/font&gt;&lt;/div&gt;&lt;div align=&quot;left&quot;&gt;&lt;font style=&quot;font-size: 14px;&quot; face=&quot;Courier New&quot;&gt;material richness&lt;br&gt;&lt;/font&gt;&lt;/div&gt;&lt;div align=&quot;left&quot;&gt;&lt;font style=&quot;font-size: 14px;&quot; face=&quot;Courier New&quot;&gt;old_layer&lt;br&gt;&lt;/font&gt;&lt;/div&gt;" style="text;html=1;align=left;verticalAlign=middle;whiteSpace=wrap;rounded=0;" parent="1" vertex="1">
          <mxGeometry x="647" y="662" width="178" height="30" as="geometry" />
        </mxCell>
        <mxCell id="VD79BcTOfvLgxZZ05Eph-31" value="&lt;div align=&quot;right&quot;&gt;&lt;font style=&quot;font-size: 14px;&quot; face=&quot;Courier New&quot;&gt;old_layer&lt;/font&gt;&lt;/div&gt;&lt;div align=&quot;right&quot;&gt;&lt;font style=&quot;font-size: 14px;&quot; face=&quot;Courier New&quot;&gt;distance_from_edge&lt;/font&gt;&lt;/div&gt;&lt;div align=&quot;right&quot;&gt;&lt;font style=&quot;font-size: 14px;&quot; face=&quot;Courier New&quot;&gt;ice moved&lt;/font&gt;&lt;/div&gt;&lt;div align=&quot;right&quot;&gt;&lt;font style=&quot;font-size: 14px;&quot; face=&quot;Courier New&quot;&gt;texture material&lt;/font&gt;&lt;/div&gt;&lt;div align=&quot;right&quot;&gt;&lt;font style=&quot;font-size: 14px;&quot; face=&quot;Courier New&quot;&gt;material richness&lt;/font&gt;&lt;/div&gt;" style="text;html=1;align=right;verticalAlign=middle;whiteSpace=wrap;rounded=0;" parent="1" vertex="1">
          <mxGeometry y="752" width="174" height="30" as="geometry" />
        </mxCell>
        <mxCell id="VD79BcTOfvLgxZZ05Eph-33" value="&lt;div align=&quot;left&quot;&gt;&lt;font style=&quot;font-size: 14px;&quot; face=&quot;Courier New&quot;&gt;texture material&lt;/font&gt;&lt;/div&gt;&lt;div align=&quot;left&quot;&gt;&lt;font style=&quot;font-size: 14px;&quot; face=&quot;Courier New&quot;&gt;material richness&lt;br&gt;&lt;/font&gt;&lt;/div&gt;&lt;div&gt;&lt;font style=&quot;font-size: 14px;&quot; face=&quot;Courier New&quot;&gt;already_added+&lt;/font&gt;&lt;br&gt;&lt;/div&gt;" style="text;html=1;align=left;verticalAlign=middle;whiteSpace=wrap;rounded=0;" parent="1" vertex="1">
          <mxGeometry x="647" y="753" width="178" height="30" as="geometry" />
        </mxCell>
        <mxCell id="VD79BcTOfvLgxZZ05Eph-34" value="&lt;div&gt;&lt;font style=&quot;font-size: 14px;&quot; face=&quot;Courier New&quot;&gt;glacial seeds&lt;/font&gt;&lt;/div&gt;&lt;div&gt;&lt;font style=&quot;font-size: 14px;&quot; face=&quot;Courier New&quot;&gt;waterbody_size&lt;/font&gt;&lt;/div&gt;&lt;div&gt;&lt;font style=&quot;font-size: 14px;&quot; face=&quot;Courier New&quot;&gt;texture_material&lt;/font&gt;&lt;/div&gt;&lt;div&gt;&lt;font style=&quot;font-size: 14px;&quot; face=&quot;Courier New&quot;&gt;ice/ice age ice&lt;br&gt;&lt;/font&gt;&lt;/div&gt;" style="text;html=1;align=right;verticalAlign=middle;whiteSpace=wrap;rounded=0;" parent="1" vertex="1">
          <mxGeometry x="-10" y="844" width="184" height="30" as="geometry" />
        </mxCell>
        <mxCell id="VD79BcTOfvLgxZZ05Eph-35" value="&lt;div align=&quot;left&quot;&gt;&lt;font style=&quot;font-size: 14px;&quot; face=&quot;Courier New&quot;&gt;melt tiles&lt;/font&gt;&lt;/div&gt;&lt;div align=&quot;left&quot;&gt;&lt;font style=&quot;font-size: 14px;&quot; face=&quot;Courier New&quot;&gt;glacial seeds-&lt;/font&gt;&lt;/div&gt;&lt;div align=&quot;left&quot;&gt;&lt;font style=&quot;font-size: 14px;&quot; face=&quot;Courier New&quot;&gt;texture material-&lt;/font&gt;&lt;/div&gt;&lt;div align=&quot;left&quot;&gt;&lt;font style=&quot;font-size: 14px;&quot; face=&quot;Courier New&quot;&gt;material richness-&lt;/font&gt;&lt;/div&gt;&lt;div align=&quot;left&quot;&gt;&lt;font style=&quot;font-size: 14px;&quot; face=&quot;Courier New&quot;&gt;already_added-&lt;br&gt;&lt;/font&gt;&lt;/div&gt;" style="text;html=1;align=left;verticalAlign=middle;whiteSpace=wrap;rounded=0;" parent="1" vertex="1">
          <mxGeometry x="647" y="844" width="168" height="30" as="geometry" />
        </mxCell>
        <mxCell id="VD79BcTOfvLgxZZ05Eph-36" value="&lt;div align=&quot;right&quot;&gt;&lt;font style=&quot;font-size: 14px;&quot; face=&quot;Courier New&quot;&gt;melt tiles&lt;/font&gt;&lt;/div&gt;&lt;div align=&quot;right&quot;&gt;&lt;font style=&quot;font-size: 14px;&quot; face=&quot;Courier New&quot;&gt;already_added&lt;br&gt;&lt;/font&gt;&lt;/div&gt;&lt;div align=&quot;right&quot;&gt;&lt;div&gt;&lt;font style=&quot;font-size: 14px;&quot; face=&quot;Courier New&quot;&gt;texture material&lt;/font&gt;&lt;/div&gt;&lt;div&gt;&lt;font style=&quot;font-size: 14px;&quot; face=&quot;Courier New&quot;&gt;material richness&lt;/font&gt;&lt;/div&gt;&lt;font style=&quot;font-size: 14px;&quot; face=&quot;Courier New&quot;&gt;&lt;/font&gt;&lt;/div&gt;" style="text;html=1;align=right;verticalAlign=middle;whiteSpace=wrap;rounded=0;" parent="1" vertex="1">
          <mxGeometry x="20" y="936" width="154" height="30" as="geometry" />
        </mxCell>
        <mxCell id="VD79BcTOfvLgxZZ05Eph-37" value="&lt;div align=&quot;left&quot;&gt;&lt;font style=&quot;font-size: 14px;&quot; face=&quot;Courier New&quot;&gt;silt storage&lt;/font&gt;&lt;/div&gt;&lt;div&gt;&lt;font style=&quot;font-size: 14px;&quot; face=&quot;Courier New&quot;&gt;mineral storage&lt;/font&gt;&lt;br&gt;&lt;/div&gt;" style="text;html=1;align=left;verticalAlign=middle;whiteSpace=wrap;rounded=0;" parent="1" vertex="1">
          <mxGeometry x="647" y="936" width="133" height="30" as="geometry" />
        </mxCell>
        <mxCell id="bGkYVAov0_zAZHjfnMUJ-43" style="edgeStyle=orthogonalEdgeStyle;rounded=0;orthogonalLoop=1;jettySize=auto;html=1;exitX=0.5;exitY=1;exitDx=0;exitDy=0;entryX=0.5;entryY=0;entryDx=0;entryDy=0;" parent="1" source="bGkYVAov0_zAZHjfnMUJ-6" target="bGkYVAov0_zAZHjfnMUJ-7" edge="1">
          <mxGeometry relative="1" as="geometry" />
        </mxCell>
        <mxCell id="bGkYVAov0_zAZHjfnMUJ-6" value="&lt;div&gt;&lt;font style=&quot;font-size: 14px;&quot; face=&quot;Courier New&quot;&gt;cull_back_silt&lt;/font&gt;&lt;/div&gt;&lt;div&gt;&lt;font style=&quot;font-size: 14px;&quot; face=&quot;Courier New&quot;&gt;based_on_moisture_and_slope&lt;/font&gt;&lt;/div&gt;" style="rounded=1;whiteSpace=wrap;html=1;fillColor=#f5f5f5;fontColor=#333333;strokeColor=#666666;" parent="1" vertex="1">
          <mxGeometry x="269" y="1012" width="289" height="60" as="geometry" />
        </mxCell>
        <mxCell id="bGkYVAov0_zAZHjfnMUJ-7" value="&lt;div&gt;&lt;font style=&quot;font-size: 14px;&quot; face=&quot;Courier New&quot;&gt;assign_ice_biomes&lt;/font&gt;&lt;/div&gt;&lt;div&gt;&lt;font style=&quot;font-size: 14px;&quot; face=&quot;Courier New&quot;&gt;and_set_variables&lt;/font&gt;&lt;/div&gt;" style="rounded=1;whiteSpace=wrap;html=1;fillColor=#f5f5f5;fontColor=#333333;strokeColor=#666666;" parent="1" vertex="1">
          <mxGeometry x="269" y="1103" width="289" height="60" as="geometry" />
        </mxCell>
        <mxCell id="bGkYVAov0_zAZHjfnMUJ-8" value="" style="shape=flexArrow;endArrow=classic;html=1;rounded=0;fontSize=11;" parent="1" edge="1">
          <mxGeometry width="50" height="50" relative="1" as="geometry">
            <mxPoint x="182" y="1041.5" as="sourcePoint" />
            <mxPoint x="268" y="1041.5" as="targetPoint" />
          </mxGeometry>
        </mxCell>
        <mxCell id="bGkYVAov0_zAZHjfnMUJ-9" value="" style="shape=flexArrow;endArrow=classic;html=1;rounded=0;" parent="1" edge="1">
          <mxGeometry width="50" height="50" relative="1" as="geometry">
            <mxPoint x="559" y="1041.5" as="sourcePoint" />
            <mxPoint x="644" y="1041.5" as="targetPoint" />
          </mxGeometry>
        </mxCell>
        <mxCell id="bGkYVAov0_zAZHjfnMUJ-10" value="" style="shape=flexArrow;endArrow=classic;html=1;rounded=0;fontSize=11;" parent="1" edge="1">
          <mxGeometry width="50" height="50" relative="1" as="geometry">
            <mxPoint x="182" y="1132.5" as="sourcePoint" />
            <mxPoint x="268" y="1132.5" as="targetPoint" />
          </mxGeometry>
        </mxCell>
        <mxCell id="bGkYVAov0_zAZHjfnMUJ-11" value="" style="shape=flexArrow;endArrow=classic;html=1;rounded=0;" parent="1" edge="1">
          <mxGeometry width="50" height="50" relative="1" as="geometry">
            <mxPoint x="559" y="1132.5" as="sourcePoint" />
            <mxPoint x="644" y="1132.5" as="targetPoint" />
          </mxGeometry>
        </mxCell>
        <mxCell id="bGkYVAov0_zAZHjfnMUJ-28" value="&lt;div align=&quot;right&quot;&gt;&lt;font style=&quot;font-size: 14px;&quot; face=&quot;Courier New&quot;&gt;w ice&lt;/font&gt;&lt;/div&gt;&lt;div align=&quot;right&quot;&gt;&lt;font style=&quot;font-size: 14px;&quot; face=&quot;Courier New&quot;&gt;silt storage&lt;/font&gt;&lt;/div&gt;&lt;div align=&quot;right&quot;&gt;&lt;font style=&quot;font-size: 14px;&quot; face=&quot;Courier New&quot;&gt;mineral storage&lt;br&gt;&lt;/font&gt;&lt;/div&gt;" style="text;html=1;align=right;verticalAlign=middle;whiteSpace=wrap;rounded=0;" parent="1" vertex="1">
          <mxGeometry x="20" y="1118" width="154" height="30" as="geometry" />
        </mxCell>
        <mxCell id="bGkYVAov0_zAZHjfnMUJ-29" value="&lt;div align=&quot;left&quot;&gt;&lt;font style=&quot;font-size: 14px;&quot; face=&quot;Courier New&quot;&gt;w biome&lt;br&gt;&lt;/font&gt;&lt;/div&gt;&lt;div align=&quot;left&quot;&gt;&lt;font style=&quot;font-size: 14px;&quot; face=&quot;Courier New&quot;&gt;w silt&lt;br&gt;&lt;/font&gt;&lt;/div&gt;&lt;div align=&quot;left&quot;&gt;&lt;font style=&quot;font-size: 14px;&quot; face=&quot;Courier New&quot;&gt;w mineral richness&lt;br&gt;&lt;/font&gt;&lt;/div&gt;" style="text;html=1;align=left;verticalAlign=middle;whiteSpace=wrap;rounded=0;" parent="1" vertex="1">
          <mxGeometry x="647" y="1118" width="163" height="30" as="geometry" />
        </mxCell>
        <mxCell id="bGkYVAov0_zAZHjfnMUJ-41" style="edgeStyle=orthogonalEdgeStyle;rounded=0;orthogonalLoop=1;jettySize=auto;html=1;exitX=0.5;exitY=1;exitDx=0;exitDy=0;entryX=0.501;entryY=-0.039;entryDx=0;entryDy=0;entryPerimeter=0;" parent="1" source="VD79BcTOfvLgxZZ05Eph-16" target="XjFPQFX2TH-XBSzo8ViS-9" edge="1">
          <mxGeometry relative="1" as="geometry" />
        </mxCell>
        <mxCell id="bGkYVAov0_zAZHjfnMUJ-44" value="&lt;div align=&quot;left&quot;&gt;&lt;font style=&quot;font-size: 14px;&quot; face=&quot;Courier New&quot;&gt;silt storage&lt;/font&gt;&lt;/div&gt;&lt;div&gt;&lt;font style=&quot;font-size: 14px;&quot; face=&quot;Courier New&quot;&gt;mineral storage&lt;/font&gt;&lt;br&gt;&lt;/div&gt;" style="text;html=1;align=left;verticalAlign=middle;whiteSpace=wrap;rounded=0;" parent="1" vertex="1">
          <mxGeometry x="647" y="1027" width="133" height="30" as="geometry" />
        </mxCell>
        <mxCell id="bGkYVAov0_zAZHjfnMUJ-45" value="&lt;div align=&quot;right&quot;&gt;&lt;font style=&quot;font-size: 14px;&quot; face=&quot;Courier New&quot;&gt;rock type&lt;/font&gt;&lt;/div&gt;&lt;font style=&quot;font-size: 14px;&quot; face=&quot;Courier New&quot;&gt;&lt;font style=&quot;font-size: 14px;&quot;&gt;climate data&lt;br&gt;&lt;/font&gt;&lt;/font&gt;&lt;div align=&quot;right&quot;&gt;&lt;font style=&quot;font-size: 14px;&quot; face=&quot;Courier New&quot;&gt;true elevation&lt;br&gt;&lt;/font&gt;&lt;/div&gt;&lt;div align=&quot;right&quot;&gt;&lt;div&gt;&lt;font style=&quot;font-size: 14px;&quot; face=&quot;Courier New&quot;&gt;silt storage&lt;/font&gt;&lt;/div&gt;&lt;div&gt;&lt;font style=&quot;font-size: 14px;&quot; face=&quot;Courier New&quot;&gt;mineral storage&lt;/font&gt;&lt;br&gt;&lt;/div&gt;&lt;/div&gt;" style="text;html=1;align=right;verticalAlign=middle;whiteSpace=wrap;rounded=0;" parent="1" vertex="1">
          <mxGeometry x="10" y="1027" width="164" height="30" as="geometry" />
        </mxCell>
      </root>
    </mxGraphModel>
  </diagram>
</mxfile>
